Coordinates
version=1
nRows=31
nColumns=38
inDegrees=no

Units are S.I. units (second, meters, Newtons, ...)
If the header above contains a line with 'inDegrees', this indicates whether rotational values are in degrees (yes) or radians (no).

endheader
time	pelvis_tilt	pelvis_list	pelvis_rotation	pelvis_tx	pelvis_ty	pelvis_tz	hip_flexion_r	hip_adduction_r	hip_rotation_r	knee_angle_r	ankle_angle_r	subtalar_angle_r	mtp_angle_r	hip_flexion_l	hip_adduction_l	hip_rotation_l	knee_angle_l	ankle_angle_l	subtalar_angle_l	mtp_angle_l	lumbar_extension	lumbar_bending	lumbar_rotation	arm_flex_r	arm_add_r	arm_rot_r	elbow_flex_r	pro_sup_r	wrist_flex_r	wrist_dev_r	arm_flex_l	arm_add_l	arm_rot_l	elbow_flex_l	pro_sup_l	wrist_flex_l	wrist_dev_l
40	3.0124	1.46059	-1.40846	0.658026	0.253695	0.910727	0.16831	-0.180694	-0.372601	0.598174	0.127458	0	0	0.202275	-0.173488	-0.293769	0.57078	0.108118	0	0	-0.515923	-0.00357977	0.0682723	0.485618	-0.61413	0.156339	1.30355	0.614797	0	0	0.505943	-0.394215	0.123841	1.57483	0.852034	0	0
40.01	2.98582	1.46235	-1.3813	0.657893	0.252719	0.907295	0.187941	-0.183627	-0.366687	0.62962	0.139132	0	0	0.223899	-0.179962	-0.285993	0.60238	0.117903	0	0	-0.520103	-0.000856517	0.0687549	0.492689	-0.615586	0.158227	1.30178	0.616019	0	0	0.512616	-0.394798	0.124753	1.57425	0.854967	0	0
40.02	2.96146	1.46345	-1.35672	0.657739	0.251752	0.903583	0.207168	-0.187117	-0.361228	0.661106	0.149688	0	0	0.244238	-0.185967	-0.278222	0.633566	0.129675	0	0	-0.525074	0.00156474	0.0692388	0.499865	-0.617752	0.161586	1.30221	0.616136	0	0	0.519292	-0.395515	0.125488	1.57421	0.856553	0	0
40.03	2.93573	1.4651	-1.33242	0.657815	0.250704	0.899512	0.228058	-0.190078	-0.353585	0.693214	0.161226	0	0	0.264177	-0.192481	-0.272313	0.663936	0.143315	0	0	-0.529573	0.00299163	0.0711016	0.506974	-0.62	0.164522	1.30372	0.611918	0	0	0.526223	-0.396205	0.12618	1.57424	0.856785	0	0
40.04	2.9123	1.46495	-1.31057	0.657966	0.249647	0.895455	0.246084	-0.192504	-0.346492	0.72328	0.171869	0	0	0.280579	-0.19887	-0.266801	0.691531	0.157165	0	0	-0.536088	0.00431117	0.073124	0.514737	-0.621683	0.166614	1.30414	0.611772	0	0	0.533518	-0.396785	0.126672	1.57382	0.85675	0	0
40.05	2.89091	1.46533	-1.29108	0.658253	0.248602	0.891288	0.264475	-0.194733	-0.338718	0.75291	0.183042	0	0	0.297002	-0.205368	-0.262674	0.718522	0.170676	0	0	-0.542949	0.00379653	0.0780056	0.538308	-0.595011	-0.0191858	1.21883	1.5708	0	0	0.543919	-0.39562	0.130407	1.5727	0.856931	0	0
40.06	2.87465	1.46441	-1.27742	0.658625	0.247302	0.887105	0.282267	-0.196442	-0.329471	0.782901	0.193794	0	0	0.312811	-0.212527	-0.26	0.747134	0.183745	0	0	-0.550622	0.00479412	0.0770141	0.53281	-0.623161	0.172679	1.30252	0.61264	0	0	0.548367	-0.398364	0.125708	1.57431	0.856778	0	0
40.07	2.85854	1.46575	-1.26281	0.658918	0.246134	0.882738	0.302369	-0.198929	-0.320835	0.813013	0.203302	0	0	0.332156	-0.218745	-0.25624	0.777151	0.194802	0	0	-0.557148	0.00339346	0.0804966	0.557812	-0.594863	-0.0165069	1.21621	1.5708	0	0	0.558866	-0.397491	0.129178	1.5738	0.857426	0	0
40.08	2.84456	1.46594	-1.25033	0.659179	0.24476	0.878266	0.322771	-0.201212	-0.311297	0.844995	0.212285	0	0	0.352042	-0.224966	-0.251425	0.8092	0.203234	0	0	-0.563948	0.00433966	0.0781264	0.552492	-0.622625	0.177857	1.30026	0.611299	0	0	0.563687	-0.400155	0.124966	1.57556	0.855272	0	0
40.09	2.82773	1.46726	-1.23524	0.659543	0.243495	0.873547	0.34534	-0.203079	-0.300386	0.8789	0.224034	0	0	0.374133	-0.231214	-0.245699	0.842569	0.21112	0	0	-0.569921	0.00387415	0.0789566	0.562061	-0.622205	0.179838	1.29948	0.615969	0	0	0.571535	-0.400951	0.124623	1.57583	0.854672	0	0
40.1	2.8046	1.46973	-1.2136	0.659887	0.242323	0.868478	0.369375	-0.20456	-0.288967	0.913988	0.239785	0	0	0.398494	-0.237618	-0.238942	0.87712	0.223448	0	0	-0.574829	0.00270455	0.0826646	0.586594	-0.594497	-0.00906994	1.21467	1.5708	0	0	0.582328	-0.399637	0.128055	1.57432	0.85619	0	0
40.11	2.78508	1.47004	-1.19506	0.66004	0.240988	0.863231	0.390504	-0.206581	-0.280351	0.946959	0.251976	0	0	0.420816	-0.243179	-0.230581	0.910832	0.231951	0	0	-0.580924	0.00463353	0.0806713	0.581464	-0.623873	0.185065	1.30022	0.59624	0	0	0.587696	-0.401708	0.123896	1.57431	0.857955	0	0
40.12	2.76707	1.46957	-1.17735	0.660127	0.239802	0.857854	0.408997	-0.209205	-0.275373	0.976271	0.260064	0	0	0.441495	-0.248077	-0.221569	0.942839	0.240402	0	0	-0.588135	0.00590136	0.0812445	0.591574	-0.625158	0.187473	1.29961	0.594796	0	0	0.596618	-0.401782	0.124157	1.57263	0.858279	0	0
40.13	2.74953	1.46833	-1.16018	0.66022	0.238611	0.852267	0.425644	-0.211696	-0.272165	1.00286	0.265388	0	0	0.461124	-0.252839	-0.212054	0.974352	0.251605	0	0	-0.595988	0.00739309	0.0820716	0.602417	-0.626728	0.191009	1.29835	0.59747	0	0	0.606143	-0.401733	0.124789	1.57044	0.857556	0	0
40.14	2.73245	1.46667	-1.14386	0.660407	0.237418	0.846495	0.441343	-0.213315	-0.267836	1.02974	0.275801	0	0	0.479976	-0.257698	-0.202743	1.00536	0.263851	0	0	-0.604067	0.00860012	0.0832475	0.613709	-0.627901	0.194656	1.29647	0.60242	0	0	0.616119	-0.401677	0.125722	1.56804	0.856353	0	0
40.15	2.7103	1.46697	-1.12263	0.660677	0.236302	0.840357	0.459756	-0.214874	-0.262362	1.05836	0.289337	0	0	0.501242	-0.261966	-0.193217	1.03679	0.276103	0	0	-0.610279	0.00796269	0.0870856	0.639725	-0.600264	0.00398679	1.20825	1.5708	0	0	0.629095	-0.39971	0.13104	1.56469	0.855983	0	0
40.16	2.69208	1.46593	-1.1052	0.660844	0.234991	0.834103	0.478166	-0.216331	-0.256479	1.08886	0.301986	0	0	0.522088	-0.265789	-0.182762	1.06939	0.288867	0	0	-0.616968	0.00982092	0.0851898	0.636402	-0.629268	0.201019	1.29326	0.590696	0	0	0.636507	-0.40138	0.12852	1.56341	0.857524	0	0
40.17	2.67412	1.4653	-1.08799	0.661074	0.233804	0.827837	0.497934	-0.217695	-0.25013	1.12024	0.312428	0	0	0.542885	-0.269269	-0.172745	1.10095	0.301112	0	0	-0.623792	0.00987573	0.0859199	0.647099	-0.628523	0.20212	1.29031	0.593537	0	0	0.647124	-0.400857	0.129765	1.56102	0.858836	0	0
40.18	2.6593	1.46417	-1.07422	0.661376	0.232629	0.821629	0.518206	-0.21886	-0.243177	1.15242	0.320942	0	0	0.562545	-0.272868	-0.163475	1.13149	0.312845	0	0	-0.631408	0.00930244	0.0868948	0.657173	-0.627457	0.203252	1.28799	0.592745	0	0	0.658311	-0.40004	0.131016	1.55805	0.860276	0	0
40.19	2.64761	1.4628	-1.06343	0.661686	0.231469	0.815466	0.538029	-0.220455	-0.236851	1.18418	0.328936	0	0	0.581549	-0.276213	-0.154424	1.16131	0.324126	0	0	-0.639562	0.00839174	0.0875585	0.666665	-0.625564	0.203228	1.28609	0.585681	0	0	0.669816	-0.399105	0.132088	1.55432	0.863493	0	0
40.2	2.64829	1.45881	-1.06468	0.661879	0.230284	0.809746	0.55252	-0.222361	-0.232294	1.21265	0.336846	0	0	0.596066	-0.279403	-0.146024	1.18874	0.334859	0	0	-0.651347	0.00782549	0.0877131	0.677142	-0.623334	0.202789	1.2833	0.580749	0	0	0.681583	-0.398013	0.132677	1.55049	0.867521	0	0
40.21	2.64575	1.45595	-1.0627	0.66205	0.229046	0.803849	0.567222	-0.224549	-0.228001	1.2399	0.346936	0	0	0.611432	-0.282603	-0.138305	1.21552	0.346516	0	0	-0.662806	0.00806973	0.0843625	0.692106	-0.618083	0.206541	1.27832	0.582448	0	0	0.698497	-0.382618	-0.0196153	1.53029	1.5708	0	0
40.22	2.63565	1.45329	-1.05296	0.662142	0.22783	0.797836	0.581013	-0.226112	-0.224427	1.26561	0.359953	0	0	0.627487	-0.286625	-0.130514	1.24214	0.3582	0	0	-0.67215	0.0063349	0.0888223	0.712485	-0.594271	0.049174	1.1908	1.36984	0	0	0.706311	-0.393773	0.135482	1.54193	0.867752	0	0
40.23	2.62684	1.4502	-1.04421	0.662205	0.226557	0.791683	0.59403	-0.227565	-0.220877	1.29097	0.37437	0	0	0.643853	-0.290945	-0.122497	1.26925	0.369024	0	0	-0.681795	0.00791292	0.0860866	0.710101	-0.613659	0.202804	1.26797	0.597023	0	0	0.715117	-0.393839	0.132087	1.53846	0.869669	0	0
40.24	2.6131	1.45003	-1.02967	0.662259	0.225648	0.7853	0.610086	-0.231051	-0.218842	1.31553	0.381317	0	0	0.663431	-0.294071	-0.114417	1.29629	0.378311	0	0	-0.688267	0.00679555	0.086658	0.733479	-0.582698	0.00975682	1.179	1.56506	0	0	0.727945	-0.390274	0.135248	1.5323	0.874449	0	0
40.25	2.60011	1.44904	-1.0157	0.662343	0.224799	0.7789	0.626086	-0.234435	-0.216869	1.34156	0.38892	0	0	0.682855	-0.297648	-0.106221	1.32381	0.386871	0	0	-0.694338	0.00711871	0.0845178	0.74228	-0.578495	0.0103938	1.17263	1.55518	0	0	0.737809	-0.389257	0.13541	1.52685	0.877867	0	0
40.26	2.59422	1.44733	-1.00858	0.662356	0.224047	0.772702	0.640996	-0.238229	-0.214475	1.368	0.397299	0	0	0.700528	-0.300581	-0.0985546	1.35054	0.39464	0	0	-0.701313	0.00713559	0.0820513	0.750647	-0.574415	0.0114516	1.16617	1.5472	0	0	0.747534	-0.388299	0.135723	1.52167	0.881611	0	0
40.27	2.58925	1.44512	-1.00213	0.66231	0.22336	0.766632	0.655076	-0.241956	-0.212355	1.39399	0.405352	0	0	0.717409	-0.303305	-0.0907543	1.37693	0.402164	0	0	-0.708709	0.00750951	0.079373	0.758942	-0.570578	0.0140899	1.15951	1.53828	0	0	0.756567	-0.387488	0.135498	1.51675	0.885288	0	0
40.28	2.58306	1.44164	-0.994484	0.662299	0.222728	0.760768	0.667187	-0.244938	-0.211255	1.41854	0.412652	0	0	0.733024	-0.306972	-0.0825469	1.40249	0.4096	0	0	-0.717187	0.0086056	0.0771095	0.767252	-0.566866	0.0179248	1.15298	1.52833	0	0	0.765018	-0.386755	0.134773	1.51184	0.887447	0	0
40.29	2.57762	1.4374	-0.988103	0.662322	0.222109	0.755052	0.678018	-0.247237	-0.21022	1.44182	0.419515	0	0	0.747653	-0.311059	-0.0739757	1.42748	0.415896	0	0	-0.726607	0.00980462	0.0754154	0.775883	-0.563995	0.0241223	1.14671	1.51832	0	0	0.772943	-0.386387	0.133736	1.50761	0.887789	0	0
40.3	2.57365	1.43408	-0.983957	0.662317	0.221482	0.749248	0.689915	-0.249489	-0.207811	1.46494	0.426381	0	0	0.762805	-0.314578	-0.0658503	1.45237	0.42182	0	0	-0.735288	0.0101465	0.0738955	0.784712	-0.561772	0.0309835	1.14	1.50863	0	0	0.780784	-0.386216	0.133017	1.50339	0.887296	0	0
